<?xml version="1.0" encoding="utf-8"?>
<!-- Generator: Adobe Illustrator 20.1.0, SVG Export Plug-In . SVG Version: 6.00 Build 0)  -->
<svg version="1.1" xmlns="http://www.w3.org/2000/svg" xmlns:xlink="http://www.w3.org/1999/xlink" x="0px" y="0px"
	 viewBox="0 0 265.6 172.9" style="enable-background:new 0 0 265.6 172.9;" xml:space="preserve">
<style type="text/css">
	.st0{fill:#FDC400;}
	.st1{fill:#575756;}
	.st2{fill:#EF7D00;}
	.st3{fill:#E52322;}
</style>
<g id="Layer_1">
	<g>
		<path class="st0" d="M61.4,48c0.7,0.1,66,13.1,116.9,34.7l1,0.4c2.1,1.4,19.8,16.4,29.3,24.4l0.2,0.1l56.9-21.3l-1.2-0.2
			c-12.5-2.6-28.1-6.2-44.6-10l-0.1,0c-23-5.3-49-11.3-73.1-16C103,51.6,48.3,41.3,48.3,41.3L61.4,48L61.4,48z"/>
		<path class="st1" d="M136.2,22.5C136.2,22.5,136.2,22.5,136.2,22.5c0.2,0.1,0.3,0.2,0.5,0.2c0,0,0.1,0,0.1,0.1
			c0.2,0.1,0.3,0.2,0.5,0.3c0,0,0,0,0.1,0c0.1,0.1,0.3,0.2,0.4,0.3c0,0,0.1,0.1,0.1,0.1c0.2,0.1,0.3,0.3,0.5,0.5c0,0,0,0.1,0.1,0.1
			c0.1,0.1,0.3,0.3,0.4,0.5c0,0,0.1,0.1,0.1,0.1c0.2,0.2,0.3,0.4,0.5,0.6c0,0,0,0.1,0.1,0.1c0.1,0.2,0.3,0.4,0.4,0.6
			c0,0,0,0.1,0.1,0.1c0.2,0.2,0.3,0.5,0.5,0.7c0,0,0,0.1,0.1,0.1c0.1,0.2,0.3,0.5,0.4,0.8c0,0,0,0,0,0.1c0.2,0.3,0.3,0.6,0.5,0.9
			c0,0,0,0.1,0.1,0.1c0.3,0.6,0.6,1.3,0.9,2c0,0,0,0.1,0,0.1c0.3,0.7,0.6,1.5,0.9,2.2c0,0,0,0.1,0,0.1c0.3,0.8,0.6,1.6,0.9,2.5
			c0,0,0,0,0,0c2.2,6.2,4.2,14.1,5.9,22.6c7.3,1.4,14.8,3,22.3,4.6c-3.3-11.3-6.9-22.3-10.7-31.9l0,0c-0.1-0.1-0.1-0.3-0.2-0.4
			c-0.1-0.3-0.3-0.7-0.4-1c-0.1-0.2-0.2-0.4-0.2-0.6c-0.1-0.3-0.3-0.6-0.4-0.9c-0.1-0.2-0.1-0.4-0.2-0.5c-0.2-0.5-0.4-0.9-0.6-1.4
			c-0.1-0.1-0.1-0.3-0.2-0.4c-0.1-0.3-0.3-0.7-0.4-1c-0.1-0.2-0.2-0.4-0.2-0.5c-0.1-0.3-0.3-0.6-0.4-0.9c-0.1-0.2-0.2-0.3-0.2-0.5
			c-0.2-0.4-0.4-0.8-0.5-1.2c0-0.1-0.1-0.2-0.1-0.3c-0.2-0.4-0.4-0.8-0.6-1.2c-0.1-0.2-0.1-0.3-0.2-0.5c-0.1-0.3-0.3-0.6-0.4-0.9
			c-0.1-0.2-0.2-0.3-0.2-0.5c-0.2-0.3-0.3-0.6-0.5-1c0-0.1-0.1-0.2-0.1-0.3c-0.2-0.4-0.4-0.8-0.6-1.2c-0.1-0.1-0.1-0.3-0.2-0.4
			c-0.1-0.3-0.3-0.6-0.4-0.8c-0.1-0.1-0.1-0.3-0.2-0.4c-0.2-0.3-0.3-0.6-0.5-0.8c-0.1-0.1-0.1-0.2-0.2-0.3c-0.2-0.4-0.4-0.7-0.6-1.1
			c-0.1-0.1-0.1-0.2-0.2-0.3c-0.2-0.3-0.3-0.5-0.5-0.8c-0.1-0.1-0.1-0.2-0.2-0.4c-0.2-0.2-0.3-0.5-0.5-0.7c-0.1-0.1-0.1-0.2-0.2-0.3
			c-0.2-0.3-0.4-0.6-0.6-0.9c0-0.1-0.1-0.1-0.1-0.2c-0.2-0.3-0.4-0.5-0.5-0.8c-0.1-0.1-0.1-0.2-0.2-0.3c-0.2-0.2-0.3-0.4-0.5-0.6
			c-0.1-0.1-0.1-0.2-0.2-0.3c-0.2-0.3-0.4-0.5-0.6-0.8c0,0,0,0,0,0c-0.2-0.3-0.4-0.5-0.6-0.7c-0.1-0.1-0.1-0.1-0.2-0.2
			c-0.2-0.2-0.3-0.3-0.5-0.5c-0.1-0.1-0.1-0.1-0.2-0.2c-0.2-0.2-0.4-0.4-0.5-0.5c0,0-0.1-0.1-0.1-0.1c-0.2-0.2-0.4-0.4-0.6-0.6
			c-0.1-0.1-0.1-0.1-0.2-0.2c-0.2-0.1-0.3-0.3-0.5-0.4c-0.1-0.1-0.1-0.1-0.2-0.2c-0.2-0.1-0.3-0.3-0.5-0.4c-0.1,0-0.1-0.1-0.2-0.1
			c-0.2-0.1-0.4-0.3-0.6-0.4c-0.1,0-0.1-0.1-0.2-0.1c-0.2-0.1-0.3-0.2-0.5-0.3c-0.1,0-0.1-0.1-0.2-0.1c-0.2-0.1-0.3-0.2-0.5-0.2
			c-0.1,0-0.1-0.1-0.2-0.1c-0.2-0.1-0.4-0.2-0.6-0.2c0,0-0.1,0-0.1,0c-0.2-0.1-0.4-0.1-0.5-0.1c-0.1,0-0.1,0-0.2,0
			c-0.2,0-0.3-0.1-0.5-0.1c-0.1,0-0.1,0-0.2,0c-0.2,0-0.4,0-0.6,0c-0.2,0-0.5,0-0.7,0.1c0,0-0.1,0-0.1,0c-0.2,0-0.4,0.1-0.7,0.1
			c0,0-0.1,0-0.1,0c-0.2,0.1-0.5,0.2-0.7,0.3c0,0,0,0-0.1,0c-0.2,0.1-0.4,0.2-0.7,0.3c0,0-0.1,0-0.1,0.1c-0.2,0.1-0.5,0.3-0.7,0.4
			c0,0-0.1,0.1-0.1,0.1c-0.2,0.2-0.5,0.3-0.7,0.5c0,0-0.1,0.1-0.1,0.1c-0.2,0.2-0.4,0.4-0.7,0.6c0,0,0,0-0.1,0.1
			c-0.2,0.2-0.5,0.5-0.7,0.7c0,0-0.1,0.1-0.1,0.1c-0.2,0.2-0.4,0.5-0.7,0.8c0,0-0.1,0.1-0.1,0.1c-0.2,0.3-0.5,0.6-0.7,0.9
			c0,0,0,0,0,0c-0.2,0.3-0.5,0.6-0.7,0.9c0,0.1-0.1,0.1-0.1,0.2c-0.2,0.3-0.4,0.6-0.7,1c0,0.1-0.1,0.1-0.1,0.2
			c-0.2,0.3-0.4,0.7-0.7,1.1c0,0,0,0.1-0.1,0.1c-0.2,0.4-0.4,0.7-0.6,1.1c0,0.1-0.1,0.1-0.1,0.2c-0.2,0.4-0.4,0.8-0.6,1.1
			c0,0.1-0.1,0.2-0.1,0.3c-0.2,0.4-0.4,0.8-0.6,1.2c0,0.1-0.1,0.1-0.1,0.2c-0.2,0.4-0.4,0.8-0.6,1.2c0,0.1-0.1,0.1-0.1,0.2
			c-0.2,0.4-0.4,0.9-0.6,1.3c0,0.1-0.1,0.2-0.1,0.3c-0.2,0.4-0.4,0.9-0.6,1.3c0,0.1-0.1,0.2-0.1,0.3c-0.2,0.4-0.4,0.9-0.6,1.3
			c0,0.1-0.1,0.1-0.1,0.2c-0.2,0.5-0.4,0.9-0.6,1.4c-0.1,0.1-0.1,0.2-0.2,0.4c-0.2,0.5-0.4,0.9-0.6,1.4c-0.1,0.1-0.1,0.3-0.2,0.4
			c-0.2,0.5-0.4,0.9-0.6,1.4c0,0.1-0.1,0.2-0.1,0.3c-0.2,0.4-0.3,0.8-0.5,1.2c-0.1,0.1-0.1,0.3-0.2,0.4c-0.2,0.5-0.4,0.9-0.5,1.4
			c-0.1,0.2-0.1,0.3-0.2,0.5c-0.2,0.5-0.3,0.9-0.5,1.4c-0.1,0.2-0.1,0.3-0.2,0.5c-0.1,0.4-0.3,0.8-0.4,1.1c-0.1,0.2-0.1,0.3-0.2,0.5
			c-0.2,0.5-0.3,0.9-0.5,1.4c-0.1,0.2-0.1,0.4-0.2,0.6c-0.2,0.4-0.3,0.9-0.5,1.3c-0.1,0.2-0.2,0.4-0.2,0.7c-0.1,0.3-0.2,0.6-0.3,1
			c-0.1,0.3-0.2,0.7-0.3,1c-0.1,0.3-0.2,0.6-0.3,0.9c-0.1,0.3-0.2,0.5-0.3,0.8c-0.1,0.4-0.3,0.8-0.4,1.2c-0.1,0.3-0.2,0.6-0.3,0.8
			c-0.1,0.2-0.2,0.5-0.2,0.7c-0.1,0.4-0.3,0.9-0.4,1.3c-0.1,0.2-0.1,0.4-0.2,0.6c-0.2,0.5-0.3,1-0.5,1.5c-0.1,0.2-0.1,0.4-0.2,0.5
			c-0.1,0.3-0.2,0.7-0.3,1c0,0.1-0.1,0.2-0.1,0.4c-0.2,0.6-0.3,1.2-0.5,1.8c0,0.1-0.1,0.2-0.1,0.3c-0.2,0.7-0.4,1.4-0.6,2
			c0,0,0,0,0,0l0,0c-4.6,16.1-7.6,29.8-7.6,29.8s5.3-14.5,11.6-29.1h0c0.4-0.9,0.8-1.8,1.2-2.8c0,0,0,0,0,0c0.2-0.4,0.4-0.9,0.6-1.3
			c0,0,0,0,0-0.1c0.2-0.4,0.4-0.9,0.6-1.3c0,0,0-0.1,0-0.1c0.2-0.4,0.4-0.8,0.6-1.3c0,0,0-0.1,0.1-0.1c0.2-0.4,0.4-0.8,0.5-1.2
			c0-0.1,0.1-0.1,0.1-0.2c0.2-0.4,0.4-0.8,0.5-1.1c0-0.1,0.1-0.1,0.1-0.2c0.2-0.4,0.3-0.7,0.5-1.1c0-0.1,0.1-0.2,0.1-0.3
			c0.2-0.3,0.3-0.7,0.5-1c0-0.1,0.1-0.2,0.1-0.3c0.2-0.3,0.3-0.6,0.5-1c0.1-0.1,0.1-0.2,0.2-0.3c0.2-0.3,0.3-0.6,0.5-0.9
			c0.1-0.1,0.1-0.2,0.2-0.3c0.2-0.3,0.3-0.6,0.5-0.9c0.1-0.1,0.1-0.2,0.2-0.3c0.1-0.3,0.3-0.6,0.4-0.8c0.1-0.1,0.1-0.2,0.2-0.4
			c0.1-0.3,0.3-0.5,0.4-0.8c0.1-0.1,0.1-0.2,0.2-0.4c0.1-0.2,0.3-0.5,0.4-0.7c0.1-0.1,0.1-0.3,0.2-0.4c0.1-0.2,0.3-0.5,0.4-0.7
			c0.1-0.1,0.1-0.3,0.2-0.4c0.1-0.2,0.2-0.4,0.4-0.6c0.1-0.1,0.1-0.3,0.2-0.4c0.1-0.2,0.2-0.4,0.4-0.6c0.1-0.1,0.2-0.3,0.2-0.4
			c0.1-0.2,0.2-0.4,0.3-0.5c0.1-0.1,0.2-0.3,0.2-0.4c0.1-0.2,0.2-0.3,0.3-0.5c0.1-0.1,0.2-0.2,0.2-0.4c0.1-0.2,0.2-0.3,0.3-0.5
			c0.1-0.1,0.2-0.2,0.2-0.3c0.1-0.1,0.2-0.3,0.3-0.4c0.1-0.1,0.2-0.2,0.2-0.3c0.1-0.1,0.2-0.3,0.3-0.4c0.1-0.1,0.2-0.2,0.2-0.3
			c0.1-0.1,0.2-0.2,0.3-0.3c0.1-0.1,0.2-0.2,0.2-0.3c0.1-0.1,0.2-0.2,0.3-0.3c0.1-0.1,0.2-0.2,0.2-0.3c0.1-0.1,0.2-0.2,0.3-0.3
			c0.1-0.1,0.2-0.2,0.2-0.2c0.1-0.1,0.2-0.2,0.3-0.2c0.1-0.1,0.1-0.1,0.2-0.2c0.1-0.1,0.2-0.1,0.3-0.2c0.1-0.1,0.1-0.1,0.2-0.2
			c0.1-0.1,0.2-0.1,0.3-0.2c0.1,0,0.1-0.1,0.2-0.1c0.1,0,0.2-0.1,0.3-0.1c0.1,0,0.1-0.1,0.2-0.1c0.1,0,0.2-0.1,0.3-0.1
			c0,0,0.1,0,0.1,0c0.1,0,0.3,0,0.4,0c0.2,0,0.3,0,0.5,0.1c0,0,0.1,0,0.1,0C135.9,22.4,136,22.4,136.2,22.5z"/>
		<polygon class="st2" points="153.6,75.8 103.3,97.2 155.5,88 		"/>
		<path class="st1" d="M153.6,75.8c3.7,22.5,5.8,43.5,5.8,43.5l32,22.3c0,0-5-26.4-12.6-56C178.9,85.7,161.6,78.6,153.6,75.8z"/>
		<path class="st3" d="M168.2,62c-0.7-0.2,4.1,0.9,8.4,1.9c3.8,0.9,9.2,2.1,9.2,2.1l20-53.4L168.2,62z"/>
		<polygon class="st2" points="168.2,62 195.2,68.1 230.1,57.1 		"/>
		<g>
			<path d="M8.1,171.8c-0.8,0.7-1.8,1.1-3.2,1.1c-1.5,0-2.6-0.5-3.4-1.4c-1.4-1.5-1.6-3.1-1.6-10.4s0.2-8.9,1.6-10.4
				c0.8-0.8,1.9-1.4,3.4-1.4s2.5,0.5,3.3,1.2c1,1,1.5,2.5,1.5,4.3H7.8c0-1.2-0.2-2.3-0.9-3c-0.5-0.5-1.1-0.8-2-0.8s-1.6,0.3-2,0.8
				c-0.9,1.1-1.1,2.5-1.1,9.2s0.2,8.1,1.1,9.2c0.5,0.5,1.1,0.8,2,0.8s1.5-0.3,2-0.8c0.7-0.7,0.9-1.9,0.9-3h1.9
				C9.6,169.2,9.1,170.8,8.1,171.8z"/>
			<path d="M19.5,171.6c-0.7,0.9-1.7,1.3-3,1.3c-1.3,0-2.3-0.4-3-1.3c-1-1.2-1.2-3.3-1.2-7.2s0.2-6,1.2-7.2c0.7-0.9,1.7-1.3,3-1.3
				c1.3,0,2.3,0.5,3,1.3c1,1.2,1.2,3.3,1.2,7.2S20.5,170.4,19.5,171.6z M18.1,158.3c-0.4-0.4-0.9-0.7-1.6-0.7
				c-0.7,0-1.3,0.3-1.6,0.7c-0.7,0.9-0.8,2.6-0.8,6.1c0,3.5,0.1,5.2,0.8,6.1c0.4,0.4,0.9,0.7,1.6,0.7c0.7,0,1.3-0.3,1.6-0.7
				c0.7-0.9,0.8-2.6,0.8-6.1C18.9,160.9,18.8,159.2,18.1,158.3z"/>
			<path d="M29.9,172.6v-12.4c0-1.8-1-2.7-2.3-2.7c-1.3,0-2.3,0.9-2.3,2.7v12.4h-1.8v-16.4h1.8v1.3c0.2-0.4,0.6-0.8,0.9-1
				c0.5-0.4,1.1-0.6,1.9-0.6c1.1,0,1.9,0.4,2.6,1.1c0.6,0.7,1,1.6,1,3.2v12.3H29.9z"/>
			<path d="M41.6,171.6c-0.8,0.8-1.9,1.3-3.1,1.3s-2.3-0.4-3-1.2c-0.9-1-1.3-2.2-1.3-3.5H36c0,1,0.2,1.8,0.8,2.4
				c0.5,0.5,1,0.7,1.6,0.7c0.8,0,1.4-0.3,1.9-0.7c0.5-0.5,0.7-1.2,0.7-2c0-0.7-0.1-1.3-0.5-1.8c-0.4-0.5-0.9-1-1.6-1.4l-2.1-1.1
				c-1-0.6-1.8-1.3-2.1-1.9c-0.3-0.6-0.5-1.3-0.5-2.1c0-1.3,0.5-2.3,1.3-3.1c0.7-0.7,1.8-1.1,2.9-1.1c1.2,0,2.2,0.4,2.9,1.1
				c0.8,0.8,1.2,2,1.2,3.5h-1.8c0-1.2-0.2-1.8-0.7-2.4c-0.5-0.5-1-0.6-1.6-0.6c-0.7,0-1.3,0.2-1.7,0.6c-0.5,0.5-0.7,1.3-0.7,1.9
				c0,0.5,0.1,1,0.3,1.4c0.2,0.4,0.8,0.8,1.5,1.2l2,1.2c1.1,0.6,1.8,1.2,2.2,1.9c0.5,0.7,0.6,1.6,0.6,2.6
				C42.9,169.7,42.4,170.8,41.6,171.6z"/>
			<path d="M52.4,171.6c-0.7,0.9-1.7,1.3-3,1.3c-1.3,0-2.3-0.4-3-1.3c-1-1.2-1.2-3.3-1.2-7.2s0.2-6,1.2-7.2c0.7-0.9,1.7-1.3,3-1.3
				c1.3,0,2.3,0.5,3,1.3c1,1.2,1.2,3.3,1.2,7.2S53.4,170.4,52.4,171.6z M51,158.3c-0.4-0.4-0.9-0.7-1.6-0.7c-0.7,0-1.3,0.3-1.6,0.7
				c-0.7,0.9-0.8,2.6-0.8,6.1c0,3.5,0.1,5.2,0.8,6.1c0.4,0.4,0.9,0.7,1.6,0.7c0.7,0,1.3-0.3,1.6-0.7c0.7-0.9,0.8-2.6,0.8-6.1
				C51.8,160.9,51.7,159.2,51,158.3z"/>
			<path d="M61.5,157.7c-1.9,0-3.2,1.2-3.2,3.2v11.8h-1.8v-16.4h1.8v1.7c0.2-0.4,0.5-0.8,0.8-1c0.7-0.7,1.7-1,2.8-1v1.7H61.5z"/>
			<path d="M66.6,171.6c-0.8-0.7-1.2-1.8-1.2-3.4v-10.6h-2v-1.4h2v-5.5h1.8v5.5H70v1.4h-2.8v10.6c0,2,1,2.8,2.9,2.8v1.6
				C68.8,172.6,67.6,172.5,66.6,171.6z"/>
			<path d="M72.5,153v-2.3h1.8v2.3H72.5z M72.5,172.6v-16.4h1.8v16.4H72.5z"/>
			<path d="M83.8,172.6v-1.3c-0.2,0.4-0.6,0.8-0.9,1c-0.5,0.4-1.1,0.6-1.9,0.6c-1.1,0-1.9-0.4-2.6-1.1c-0.6-0.7-1-1.6-1-3.3v-12.3
				h1.8v12.4c0,1.8,1,2.7,2.3,2.7c1.3,0,2.3-0.9,2.3-2.7v-12.4h1.8v16.4H83.8z"/>
			<path d="M101.5,172.6v-12.4c0-1.8-1-2.7-2.3-2.7c-1.3,0-2.3,0.9-2.3,2.7v12.4h-1.8v-12.4c0-1.8-1-2.7-2.3-2.7
				c-1.3,0-2.3,0.9-2.3,2.7v12.4h-1.8v-16.4h1.8v1.3c0.2-0.4,0.6-0.8,0.9-1c0.5-0.4,1.1-0.6,1.9-0.6c1.2,0,2.4,0.7,3.1,1.7
				c0.3-0.4,0.7-0.9,1.1-1.2c0.5-0.4,1.2-0.6,2-0.6c1.4,0,2.1,0.4,2.8,1.1c0.6,0.7,1,1.6,1,3.2v12.3H101.5z"/>
		</g>
		<g>
			<path d="M17.2,95.6l-1.5-7.2H7.3l-1.4,7.2h-6l8.9-36.3h5.6l8.8,36.3H17.2z M11.5,68.1L8.4,83.3h6.2L11.5,68.1z"/>
			<path d="M40.4,96.1c0,3.5-0.8,5.5-2.3,7c-1.4,1.4-3.6,2.2-5.8,2.2c-2.2,0-4.4-0.7-5.8-2.1c-1.7-1.6-2.2-3.7-2.2-5.9h5.4
				c0,1,0.2,1.9,0.7,2.6c0.5,0.6,1.2,0.8,2,0.8c0.8,0,1.5-0.3,1.9-0.9c0.5-0.7,0.8-1.6,0.8-3.3v-4.6c-0.4,0.5-0.9,1-1.5,1.4
				c-0.8,0.5-1.6,0.7-2.7,0.7c-2,0-3.4-0.6-4.6-2c-1.7-2-2.1-5-2.1-10.9c0-5.8,0.4-8.8,2.1-10.8c1.2-1.4,2.6-2,4.6-2
				c1.1,0,2,0.2,2.8,0.7c0.6,0.4,1.2,0.9,1.6,1.4v-1.7h5.2V96.1z M34.9,76.4c0-1.2-0.3-1.9-0.8-2.5c-0.5-0.5-1.1-0.8-1.8-0.8
				c-0.8,0-1.5,0.4-2,1.1c-0.7,0.9-0.9,2.6-0.9,7c0,4.4,0.2,6.1,0.9,7c0.5,0.6,1.2,1,2,1c0.8,0,1.3-0.2,1.8-0.7
				c0.6-0.6,0.8-1.3,0.8-2.5V76.4z"/>
			<path d="M44.1,65.3v-6h5.4v6H44.1z M44.1,95.6V68.7h5.4v26.9H44.1z"/>
			<path d="M55.9,94c-1.7-1.3-2.7-3.3-2.7-6.5V59.3h5.4v27.8c0,2.4,1.2,3.6,3.7,3.6v4.8C59.7,95.6,57.6,95.4,55.9,94z"/>
			<path d="M68.8,83.7c0,3.1,0.2,5.4,0.8,6.4c0.4,0.6,1.1,1.1,2.1,1.1c0.9,0,1.6-0.4,2-1c0.5-0.6,0.7-1.5,0.7-2.4h5.4
				c-0.1,2.4-0.7,4.4-2.3,6.2c-1.4,1.5-3.3,2.1-5.8,2.1c-2.4,0-4.2-0.5-5.8-2.2c-2.2-2.3-2.5-6.8-2.5-11.7c0-4.8,0.3-9.3,2.5-11.7
				c1.6-1.7,3.6-2.1,5.8-2.1c2.2,0,4.1,0.5,5.8,2.1c2.1,2.1,2.5,6.8,2.5,13.3H68.8z M73.8,74.2c-0.5-0.7-1.1-1.1-2.1-1.1
				c-1,0-1.6,0.4-2.1,1.1c-0.6,0.8-0.8,2.4-0.8,5.6h5.7C74.5,76.6,74.3,75,73.8,74.2z"/>
		</g>
		<g>
			<path d="M16.2,138.9c-1.5,1.5-3.7,2.3-7.1,2.3H0v-36.3h9.1c3.4,0,5.6,0.7,7,2.2c1.7,1.7,2.3,3.5,2.3,7.4c0,2.6-0.4,4.6-2.1,6.3
				c-0.5,0.5-1.1,1-1.9,1.3c0.8,0.4,1.5,0.8,2,1.3c1.7,1.7,2.1,3.9,2.1,7.3C18.5,135.1,17.9,137.1,16.2,138.9z M8.6,110.1H5.7v9.8
				h2.9c3,0,4.1-1.5,4.1-4.9C12.7,111.4,11.5,110.1,8.6,110.1z M8.5,124.8H5.7v11.3h2.8c3.1,0,4.3-1.4,4.3-5.7
				C12.8,126.4,11.5,124.8,8.5,124.8z"/>
			<path d="M32.4,141.2v-2c-0.5,0.6-1.2,1.3-1.8,1.7c-0.8,0.5-1.7,0.8-2.7,0.8c-2.2,0-3.7-0.7-4.9-2.1c-1.1-1.2-1.5-2.7-1.5-5.8
				v-19.4h5.4v19.3c0,2.1,1.2,3.1,2.7,3.1c1.5,0,2.7-1,2.7-3.1v-19.3h5.4v26.9H32.4z"/>
			<path d="M54.4,139.4c-1.6,1.6-3.6,2.2-5.9,2.2c-2.3,0-4.5-0.8-5.9-2.2c-1.6-1.6-2.4-3.5-2.4-6.1h5.4c0,1.1,0.3,1.9,0.9,2.6
				c0.5,0.6,1.3,0.8,2,0.8c0.9,0,1.5-0.2,2.1-0.8c0.5-0.5,0.8-1.3,0.8-2.1c0-0.8-0.2-1.4-0.6-2c-0.4-0.6-1.1-1.1-2.1-1.5l-3.6-1.6
				c-1.8-0.8-3.2-1.9-3.9-3.1c-0.6-1-0.9-2.2-0.9-3.7c0-2.6,0.9-4.3,2.3-5.8c1.5-1.5,3.6-2.2,5.8-2.2s4.3,0.7,5.7,2
				c1.4,1.4,2.3,3.3,2.3,6h-5.3c0-1.2-0.3-1.9-0.8-2.4c-0.5-0.6-1.2-0.8-1.9-0.8c-0.8,0-1.5,0.3-2,0.8c-0.5,0.5-0.8,1.2-0.8,2
				c0,0.7,0.1,1.1,0.4,1.6c0.4,0.6,1.1,1.1,2,1.5l3.6,1.5c1.8,0.8,3.1,1.7,3.9,3c0.7,1,1.1,2.5,1.1,4.4
				C56.8,136.1,55.8,138.1,54.4,139.4z"/>
			<path d="M59.4,110.9v-6h5.4v6H59.4z M59.4,141.2v-26.9h5.4v26.9H59.4z"/>
			<path d="M79,141.2v-19.3c0-2.1-1.2-3.1-2.7-3.1c-1.5,0-2.7,1-2.7,3.1v19.3h-5.4v-26.9h5.2v2c0.5-0.6,1.1-1.3,1.8-1.7
				c0.8-0.5,1.7-0.7,2.7-0.7c2.2,0,3.7,0.7,4.9,2.1c1.1,1.2,1.5,2.7,1.5,5.8v19.4H79z"/>
			<path d="M92.7,129.3c0,3.1,0.2,5.4,0.8,6.4c0.4,0.6,1.1,1.1,2.1,1.1c0.9,0,1.6-0.4,2-1c0.5-0.6,0.7-1.5,0.7-2.4h5.4
				c-0.1,2.4-0.7,4.4-2.3,6.2c-1.4,1.5-3.3,2.1-5.8,2.1c-2.4,0-4.2-0.5-5.8-2.2c-2.2-2.3-2.5-6.8-2.5-11.7c0-4.8,0.3-9.3,2.5-11.7
				c1.6-1.7,3.6-2.1,5.8-2.1c2.2,0,4.1,0.5,5.8,2.1c2.1,2.1,2.5,6.8,2.5,13.3H92.7z M97.6,119.8c-0.5-0.7-1.1-1.1-2.1-1.1
				c-1,0-1.6,0.4-2.1,1.1c-0.6,0.8-0.8,2.4-0.8,5.6h5.7C98.4,122.2,98.2,120.6,97.6,119.8z"/>
			<path d="M120.1,139.4c-1.6,1.6-3.6,2.2-5.9,2.2c-2.3,0-4.5-0.8-5.9-2.2c-1.6-1.6-2.4-3.5-2.4-6.1h5.4c0,1.1,0.3,1.9,0.9,2.6
				c0.5,0.6,1.3,0.8,2,0.8c0.9,0,1.5-0.2,2.1-0.8c0.5-0.5,0.8-1.3,0.8-2.1c0-0.8-0.2-1.4-0.6-2s-1.1-1.1-2.1-1.5l-3.6-1.6
				c-1.8-0.8-3.2-1.9-3.9-3.1c-0.6-1-0.9-2.2-0.9-3.7c0-2.6,0.9-4.3,2.3-5.8c1.5-1.5,3.6-2.2,5.8-2.2s4.3,0.7,5.7,2
				c1.4,1.4,2.3,3.3,2.3,6h-5.3c0-1.2-0.3-1.9-0.8-2.4c-0.5-0.6-1.2-0.8-1.9-0.8c-0.8,0-1.5,0.3-2,0.8c-0.5,0.5-0.8,1.2-0.8,2
				c0,0.7,0.1,1.1,0.4,1.6c0.4,0.6,1.1,1.1,2,1.5l3.6,1.5c1.8,0.8,3.1,1.7,3.9,3c0.7,1,1.1,2.5,1.1,4.4
				C122.5,136.1,121.4,138.1,120.1,139.4z"/>
			<path d="M138.4,139.4c-1.6,1.6-3.6,2.2-5.9,2.2c-2.3,0-4.5-0.8-5.9-2.2c-1.6-1.6-2.4-3.5-2.4-6.1h5.4c0,1.1,0.3,1.9,0.9,2.6
				c0.5,0.6,1.3,0.8,2,0.8c0.9,0,1.5-0.2,2.1-0.8c0.5-0.5,0.8-1.3,0.8-2.1c0-0.8-0.2-1.4-0.6-2c-0.4-0.6-1.1-1.1-2.1-1.5l-3.6-1.6
				c-1.8-0.8-3.2-1.9-3.9-3.1c-0.6-1-0.9-2.2-0.9-3.7c0-2.6,0.9-4.3,2.3-5.8c1.5-1.5,3.6-2.2,5.8-2.2s4.3,0.7,5.7,2
				c1.4,1.4,2.3,3.3,2.3,6h-5.3c0-1.2-0.3-1.9-0.8-2.4c-0.5-0.6-1.2-0.8-1.9-0.8c-0.8,0-1.5,0.3-2,0.8c-0.5,0.5-0.8,1.2-0.8,2
				c0,0.7,0.1,1.1,0.4,1.6c0.4,0.6,1.1,1.1,2,1.5l3.6,1.5c1.8,0.8,3.1,1.7,3.9,3c0.7,1,1.1,2.5,1.1,4.4
				C140.8,136.1,139.8,138.1,138.4,139.4z"/>
		</g>
	</g>
</g>
<g id="Layer_2">
</g>
</svg>
